<?xml version="1.0" encoding="UTF-8" standalone="no"?>
<!-- Created with Inkscape (http://www.inkscape.org/) -->

<svg
   xmlns:dc="http://purl.org/dc/elements/1.1/"
   xmlns:cc="http://creativecommons.org/ns#"
   xmlns:rdf="http://www.w3.org/1999/02/22-rdf-syntax-ns#"
   xmlns:svg="http://www.w3.org/2000/svg"
   xmlns="http://www.w3.org/2000/svg"
   xmlns:sodipodi="http://sodipodi.sourceforge.net/DTD/sodipodi-0.dtd"
   xmlns:inkscape="http://www.inkscape.org/namespaces/inkscape"
   version="1.1"
   id="svg2"
   xml:space="preserve"
   width="243.06667"
   height="135.25333"
   viewBox="0 0 243.06667 135.25333"
   sodipodi:docname="suse_logo.svg"
   inkscape:version="0.92.4 (5da689c313, 2019-01-14)"><metadata
     id="metadata8"><rdf:RDF><cc:Work
         rdf:about=""><dc:format>image/svg+xml</dc:format><dc:type
           rdf:resource="http://purl.org/dc/dcmitype/StillImage" /><dc:title></dc:title></cc:Work></rdf:RDF></metadata><defs
     id="defs6" /><sodipodi:namedview
     pagecolor="#ffffff"
     bordercolor="#666666"
     borderopacity="1"
     objecttolerance="10"
     gridtolerance="10"
     guidetolerance="10"
     inkscape:pageopacity="0"
     inkscape:pageshadow="2"
     inkscape:window-width="1317"
     inkscape:window-height="757"
     id="namedview4"
     showgrid="false"
     inkscape:zoom="1.5304443"
     inkscape:cx="39.857706"
     inkscape:cy="67.626663"
     inkscape:window-x="838"
     inkscape:window-y="620"
     inkscape:window-maximized="0"
     inkscape:current-layer="g10" /><g
     id="g10"
     inkscape:groupmode="layer"
     inkscape:label="ink_ext_XXXXXX"
     transform="matrix(1.3333333,0,0,-1.3333333,0,135.25333)"><g
       id="g12"
       transform="scale(0.1)"><path
         d="m 382.52,98.8438 h 7.46 l 22.012,-67.0899 22.93,66.8555 h 9.512 L 415.781,17.7695 h -7.695 l -22.012,65.125 -22.129,-65.125 h -7.578 l -28.652,80.8399 h 9.851 l 22.942,-66.8555 22.012,67.0899"
         style="fill:#0a2e50;fill-opacity:1;fill-rule:nonzero;stroke:none"
         id="path14"
         inkscape:connector-curvature="0" /><path
         d="m 493.652,51.2539 c -0.918,10.7734 -7.113,20.1758 -18.925,20.1758 -10.313,0 -18.106,-8.5938 -19.258,-20.1758 z M 476.336,24.6445 c 8.137,0 13.879,3.3282 18.691,8.3789 l 5.5,-4.9336 c -5.957,-6.6484 -13.183,-11.121 -24.414,-11.121 -16.289,0 -29.59,12.5 -29.59,30.957 0,17.1953 12.04,30.9648 28.438,30.9648 17.539,0 27.637,-13.9922 27.637,-31.4258 0,-0.7968 0,-1.7187 -0.118,-2.7539 h -47.011 c 1.269,-12.8398 10.429,-20.0664 20.867,-20.0664"
         style="fill:#0a2e50;fill-opacity:1;fill-rule:nonzero;stroke:none"
         id="path16"
         inkscape:connector-curvature="0" /><path
         d="m 553.516,36 c 0,-7.5664 6.882,-11.9219 14.91,-11.9219 10.89,0 19.836,6.6485 19.836,16.0547 v 5.7305 c -4.356,1.2617 -10.196,2.5195 -17.422,2.5195 -11.133,0 -17.324,-4.8125 -17.324,-12.3828 z M 552.48,66.2734 549.844,73.5 c 6.543,2.9805 12.969,4.9336 21.562,4.9336 16.172,0 25.235,-8.2617 25.235,-23.8594 V 18.3438 h -8.496 v 8.9492 c -4.122,-5.3946 -10.997,-10.2188 -21.438,-10.2188 -11.004,0 -22.137,6.2031 -22.137,18.586 0,12.6054 10.332,19.2578 25.352,19.2578 7.558,0 12.949,-1.0274 18.223,-2.5196 v 2.0586 c 0,10.6641 -6.524,16.1719 -17.657,16.1719 -6.992,0 -12.5,-1.8359 -18.008,-4.3555"
         style="fill:#0a2e50;fill-opacity:1;fill-rule:nonzero;stroke:none"
         id="path18"
         inkscape:connector-curvature="0" /><path
         d="m 640.215,70.9727 c -11.465,0 -20.86,-8.4883 -20.86,-22.9297 0,-14.1016 9.629,-23.0469 20.86,-23.0469 11.015,0 21.445,9.1719 21.445,23.0469 0,13.7578 -10.43,22.9297 -21.445,22.9297 z m 21.101,-52.6289 v 11.9257 c -4.812,-7.1093 -11.804,-13.1953 -22.703,-13.1953 -14.218,0 -28.32,11.2422 -28.32,30.8516 0,19.4922 14.102,30.9648 28.32,30.9648 11.016,0 18.125,-5.9648 22.703,-12.6172 v 35.7736 h 8.84 V 18.3438 h -8.84"
         style="fill:#0a2e50;fill-opacity:1;fill-rule:nonzero;stroke:none"
         id="path20"
         inkscape:connector-curvature="0" /><path
         d="m 692.637,36 c 0,-7.5664 6.875,-11.9219 14.902,-11.9219 10.899,0 19.844,6.6485 19.844,16.0547 v 5.7305 c -4.356,1.2617 -10.215,2.5195 -17.442,2.5195 -11.113,0 -17.304,-4.8125 -17.304,-12.3828 z m -1.035,30.2734 -2.637,7.2266 c 6.531,2.9805 12.949,4.9336 21.562,4.9336 16.161,0 25.215,-8.2617 25.215,-23.8594 V 18.3438 h -8.476 V 27.293 C 723.133,21.8984 716.25,17.0742 705.82,17.0742 c -11.015,0 -22.129,6.2031 -22.129,18.586 0,12.6054 10.313,19.2578 25.332,19.2578 7.579,0 12.969,-1.0274 18.243,-2.5196 v 2.0586 c 0,10.6641 -6.543,16.1719 -17.657,16.1719 -7.004,0 -12.5,-1.8359 -18.007,-4.3555"
         style="fill:#0a2e50;fill-opacity:1;fill-rule:nonzero;stroke:none"
         id="path22"
         inkscape:connector-curvature="0" /><path
         d="m 782.773,70.9727 c -11.015,0 -21.445,-9.1719 -21.445,-22.9297 0,-13.875 10.43,-23.0469 21.445,-23.0469 11.465,0 20.86,8.4844 20.86,22.9297 0,14.1015 -9.629,23.0469 -20.86,23.0469 z m 1.602,-53.8985 c -11.016,0 -18.125,5.9688 -22.707,12.6172 V 0 h -8.836 v 77.6211 h 8.836 V 65.6992 c 4.816,7.1094 11.809,13.1914 22.707,13.1914 14.219,0 28.32,-11.2383 28.32,-30.8476 0,-19.4922 -13.984,-30.9688 -28.32,-30.9688"
         style="fill:#0a2e50;fill-opacity:1;fill-rule:nonzero;stroke:none"
         id="path24"
         inkscape:connector-curvature="0" /><path
         d="m 839.199,35.1992 c 0,-7.2265 4.004,-9.8633 9.969,-9.8633 2.98,0 5.508,0.5782 8.605,2.0625 v -7.5703 c -3.097,-1.6015 -6.425,-2.5195 -10.664,-2.5195 -9.523,0 -16.738,4.6992 -16.738,16.7383 v 35.7812 h -8.262 v 7.793 h 8.262 v 17.8906 h 8.828 V 77.6211 h 18.797 v -7.793 H 839.199 V 35.1992"
         style="fill:#0a2e50;fill-opacity:1;fill-rule:nonzero;stroke:none"
         id="path26"
         inkscape:connector-curvature="0" /><path
         d="m 870.84,18.3438 v 12.0429 h 10.555 V 18.3438 H 870.84"
         style="fill:#0a2e50;fill-opacity:1;fill-rule:nonzero;stroke:none"
         id="path28"
         inkscape:connector-curvature="0" /><path
         d="m 952.539,18.3438 h -9.18 V 50.1016 L 910,98.6094 h 10.996 l 27.07,-40.1367 27.286,40.1367 h 10.546 L 952.539,50.2188 v -31.875"
         style="fill:#0a2e50;fill-opacity:1;fill-rule:nonzero;stroke:none"
         id="path30"
         inkscape:connector-curvature="0" /><path
         d="m 1011.6,71.0898 c -12.85,0 -21.678,-10.207 -21.678,-23.0468 0,-12.8438 9.402,-23.1641 21.908,-23.1641 12.84,0 21.78,10.2031 21.78,22.9297 0,12.957 -9.51,23.2812 -22.01,23.2812 z m 0,-54.121 c -17.772,0 -30.741,13.9843 -30.741,30.8398 0,16.8555 13.075,31.082 30.971,31.082 17.77,0 30.84,-13.9922 30.84,-30.8476 0,-16.8555 -13.18,-31.0742 -31.07,-31.0742"
         style="fill:#0a2e50;fill-opacity:1;fill-rule:nonzero;stroke:none"
         id="path32"
         inkscape:connector-curvature="0" /><path
         d="m 1098.98,77.6211 h 8.71 V 18.3438 h -8.71 v 10.3125 c -4.01,-6.4141 -10.08,-11.5821 -20.29,-11.5821 -14.34,0 -22.7,9.6406 -22.7,23.7422 v 36.8047 h 8.82 V 42.9922 c 0,-11.0039 5.97,-17.8906 16.4,-17.8906 10.1,0 17.77,7.4609 17.77,18.5859 v 33.9336"
         style="fill:#0a2e50;fill-opacity:1;fill-rule:nonzero;stroke:none"
         id="path34"
         inkscape:connector-curvature="0" /><path
         d="m 1178.11,17.1914 c -8.48,0 -17.88,3.332 -24.54,8.7227 l 4.48,6.2968 c 6.42,-4.8125 13.53,-7.5664 20.52,-7.5664 7.11,0 12.27,3.6719 12.27,9.4024 v 0.2344 c 0,5.957 -6.99,8.2539 -14.79,10.4296 -9.28,2.6368 -19.61,5.8516 -19.61,16.75 v 0.2227 c 0,10.207 8.49,16.9727 20.18,16.9727 7.23,0 15.25,-2.5196 21.33,-6.5313 l -4.01,-6.6523 c -5.5,3.5546 -11.81,5.7343 -17.54,5.7343 -7,0 -11.47,-3.6718 -11.47,-8.6054 v -0.2227 c 0,-5.625 7.33,-7.8047 15.24,-10.207 9.18,-2.7539 19.05,-6.3086 19.05,-16.9727 v -0.2344 c 0,-11.2304 -9.3,-17.7734 -21.11,-17.7734"
         style="fill:#0a2e50;fill-opacity:1;fill-rule:nonzero;stroke:none"
         id="path36"
         inkscape:connector-curvature="0" /><path
         d="m 1255.98,77.6211 h 8.72 V 18.3438 h -8.72 v 10.3125 c -4.01,-6.4141 -10.08,-11.5821 -20.3,-11.5821 -14.33,0 -22.69,9.6406 -22.69,23.7422 v 36.8047 h 8.83 V 42.9922 c 0,-11.0039 5.95,-17.8906 16.38,-17.8906 10.1,0 17.78,7.4609 17.78,18.5859 v 33.9336"
         style="fill:#0a2e50;fill-opacity:1;fill-rule:nonzero;stroke:none"
         id="path38"
         inkscape:connector-curvature="0" /><path
         d="m 1309.55,16.9688 c -17.32,0 -30.39,14.1015 -30.39,30.8398 0,16.8555 13.07,31.082 30.39,31.082 11.23,0 18.22,-4.707 23.73,-10.5547 l -5.85,-6.1914 c -4.7,4.9297 -9.97,8.9453 -18,8.9453 -12.05,0 -21.22,-10.207 -21.22,-23.0468 0,-12.961 9.41,-23.1641 21.79,-23.1641 7.57,0 13.42,3.7774 18.12,8.8281 l 5.62,-5.2734 c -5.97,-6.6523 -13.08,-11.4648 -24.19,-11.4648"
         style="fill:#0a2e50;fill-opacity:1;fill-rule:nonzero;stroke:none"
         id="path40"
         inkscape:connector-curvature="0" /><path
         d="m 1371.6,16.9688 c -17.32,0 -30.39,14.1015 -30.39,30.8398 0,16.8555 13.07,31.082 30.39,31.082 11.23,0 18.23,-4.707 23.73,-10.5547 l -5.84,-6.1914 c -4.71,4.9297 -9.98,8.9453 -18.01,8.9453 -12.04,0 -21.21,-10.207 -21.21,-23.0468 0,-12.961 9.4,-23.1641 21.78,-23.1641 7.58,0 13.42,3.7774 18.12,8.8281 l 5.63,-5.2734 c -5.97,-6.6523 -13.08,-11.4648 -24.2,-11.4648"
         style="fill:#0a2e50;fill-opacity:1;fill-rule:nonzero;stroke:none"
         id="path42"
         inkscape:connector-curvature="0" /><path
         d="m 1450.39,51.2539 c -0.92,10.7734 -7.11,20.1758 -18.92,20.1758 -10.32,0 -18.11,-8.5938 -19.26,-20.1758 z m -17.31,-26.6094 c 8.14,0 13.87,3.3282 18.7,8.3789 l 5.49,-4.9336 c -5.96,-6.6484 -13.18,-11.121 -24.42,-11.121 -16.29,0 -29.59,12.5 -29.59,30.957 0,17.1953 12.05,30.9648 28.44,30.9648 17.55,0 27.63,-13.9922 27.63,-31.4258 0,-0.7968 0,-1.7187 -0.1,-2.7539 h -47.02 c 1.27,-12.8398 10.44,-20.0664 20.87,-20.0664"
         style="fill:#0a2e50;fill-opacity:1;fill-rule:nonzero;stroke:none"
         id="path44"
         inkscape:connector-curvature="0" /><path
         d="m 1516.56,51.2539 c -0.92,10.7734 -7.11,20.1758 -18.91,20.1758 -10.33,0 -18.12,-8.5938 -19.27,-20.1758 z m -17.3,-26.6094 c 8.13,0 13.86,3.3282 18.69,8.3789 l 5.5,-4.9336 c -5.97,-6.6484 -13.19,-11.121 -24.43,-11.121 -16.29,0 -29.59,12.5 -29.59,30.957 0,17.1953 12.05,30.9648 28.44,30.9648 17.55,0 27.64,-13.9922 27.64,-31.4258 0,-0.7968 0,-1.7187 -0.11,-2.7539 h -47.02 c 1.27,-12.8398 10.44,-20.0664 20.88,-20.0664"
         style="fill:#0a2e50;fill-opacity:1;fill-rule:nonzero;stroke:none"
         id="path46"
         inkscape:connector-curvature="0" /><path
         d="m 1565.77,70.9727 c -11.47,0 -20.87,-8.4883 -20.87,-22.9297 0,-14.1016 9.63,-23.0469 20.87,-23.0469 11.01,0 21.44,9.1719 21.44,23.0469 0,13.7578 -10.43,22.9297 -21.44,22.9297 z m 21.1,-52.6289 v 11.9257 c -4.82,-7.1093 -11.81,-13.1953 -22.71,-13.1953 -14.22,0 -28.32,11.2422 -28.32,30.8516 0,19.4922 14.1,30.9648 28.32,30.9648 11.01,0 18.12,-5.9648 22.71,-12.6172 v 35.7736 h 8.83 V 18.3438 h -8.83"
         style="fill:#0a2e50;fill-opacity:1;fill-rule:nonzero;stroke:none"
         id="path48"
         inkscape:connector-curvature="0" /><path
         d="m 1612.67,18.3438 v 12.0429 h 10.55 V 18.3438 h -10.55"
         style="fill:#0a2e50;fill-opacity:1;fill-rule:nonzero;stroke:none"
         id="path50"
         inkscape:connector-curvature="0" /><path
         d="m 559.012,395.289 c -1.199,0.184 -129.871,18.848 -131.121,19.043 -22.602,3.586 -34.004,14.676 -34.004,33.027 0,18.387 15.777,28.75 28.828,28.75 h 212.558 v 79.399 c 0,0 -210.058,0 -212.089,0 -67.325,0 -113.789,-51.149 -113.789,-108.149 0,-49.863 29.949,-101.476 98.476,-112.062 1.192,-0.176 129.883,-18.848 131.133,-19.051 22.578,-3.535 34.023,-14.66 34.023,-33.019 0,-18.368 -15.82,-28.731 -28.906,-28.731 H 388.809 v -0.078 c -31.465,-0.965 -64.59,-25.066 -64.59,-72.313 0,-2.089 0,-4.445 0,-7.031 0,0 218.738,0 219.511,0 67.286,0 113.75,51.16 113.75,108.153 0,49.855 -29.902,101.503 -98.468,112.062 z m 1128.038,80.82 c 31.48,0.946 64.61,25.118 64.61,72.383 0,2.078 0,4.442 0,7.016 h -229.94 c -67.33,0 -113.78,-51.149 -113.78,-108.149 v 0 c 0,0 0,-163.312 0,-164.132 0,-56.993 46.46,-108.153 113.78,-108.153 2.07,0 229.94,0 229.94,0 0,2.586 0,4.942 0,7.031 0,47.247 -33.13,71.348 -64.6,72.313 v 0.078 h -165.8 c -13.03,0 -28.85,10.363 -28.85,28.731 0,18.359 12.04,33.019 34.02,33.019 21.99,0 70.59,0 71.83,0 63.24,0.43 99.68,39.16 111.13,83.426 h -172.81 c -31.1,0 -44.16,-24.668 -44.16,-24.668 v 72.355 c 0,18.387 15.78,28.75 28.84,28.75 z m 115.32,-270.558 c 0,-2.11 -1.51,-3.602 -4.29,-3.602 h -5.57 v 7.266 h 5.43 c 2.73,0 4.43,-1.231 4.43,-3.664 z m 5.59,0.332 c 0,5.117 -3.84,8.156 -9.84,8.156 h -11.14 v -24.726 h 5.53 v 7.957 h 4.38 l 5.35,-7.957 h 6.44 l -6.12,8.855 c 3.19,1.145 5.4,3.664 5.4,7.715 z m 9.59,-4.832 c 0,-11.426 -9.02,-20.742 -20.92,-20.742 -11.87,0 -20.77,9.187 -20.77,20.613 0,11.445 8.95,20.746 20.9,20.746 11.86,0 20.79,-9.191 20.79,-20.617 z m 5.43,0.019 c 0,14.16 -11.49,25.821 -26.2,25.821 -14.76,0 -26.38,-11.789 -26.38,-25.969 0,-14.188 11.49,-25.848 26.21,-25.848 14.76,0 26.37,11.817 26.37,25.996 z M 931.797,555.664 V 329.352 c 0,-47.286 -38.34,-85.579 -85.567,-85.579 -47.277,0 -85.585,38.293 -85.585,85.579 V 555.664 H 678.223 V 334.098 c 0,-92.785 75.215,-168 168.007,-168 92.754,0 167.96,75.215 167.96,168 V 555.664 Z M 1386.26,283.227 c 0,-56.993 -46.47,-108.153 -113.76,-108.153 -2.06,0 -212.07,0 -212.07,0 v 79.422 h 212.51 c 13.04,0 28.87,10.363 28.87,28.731 0,18.359 -11.44,29.484 -34.05,33.019 -1.21,0.203 -129.89,18.875 -131.1,19.051 -68.56,10.586 -98.48,62.199 -98.48,112.062 0,57 46.46,108.149 113.78,108.149 2.05,0 212.09,0 212.09,0 v -79.399 h -212.54 c -13.05,0 -28.85,-10.363 -28.85,-28.75 0,-18.351 11.47,-29.441 34.02,-33.027 1.23,-0.195 129.92,-18.859 131.11,-19.043 68.54,-10.559 98.47,-62.207 98.47,-112.062"
         style="fill:#0a2e50;fill-opacity:1;fill-rule:nonzero;stroke:none"
         id="path52"
         inkscape:connector-curvature="0" /><path
         d="m 872.52,883.129 c 0.585,16.621 7.566,32.051 19.746,43.359 12.109,11.379 27.988,17.242 44.609,16.707 34.355,-1.242 61.27,-30.164 60.137,-64.468 -0.645,-16.602 -7.598,-31.985 -19.778,-43.344 -12.097,-11.379 -27.957,-17.242 -44.636,-16.688 -34.297,1.258 -61.211,30.145 -60.078,64.434 z m -99.942,120.351 c 0,0 -0.539,-30.207 -0.605,-33.562 -14.864,4.961 -122.95,39.872 -224.258,43.412 -85.899,3.02 -203.203,7.1 -368.985,-94.779 l -4.902,-3.067 C 95.8594,866.84 42.0313,806.871 13.8867,737.133 5.03906,715.207 -6.83594,665.707 4.92188,619.156 10,598.785 19.4727,578.344 32.2266,560.031 c 28.789,-41.343 77.0894,-68.804 129.1284,-73.445 73.469,-6.543 129.122,26.457 148.899,88.219 13.633,42.633 0,105.172 -52.149,137.093 -42.402,25.997 -88.066,20.055 -114.492,2.594 -22.98,-15.238 -35.996,-38.867 -35.761,-64.879 0.527,-46.062 40.222,-70.578 68.75,-70.613 8.3,0 16.64,1.418 26.035,4.496 3.34,1.02 6.484,2.258 9.949,4.422 l 1.086,0.68 0.683,0.398 -0.273,-0.113 c 6.523,4.383 10.508,11.601 10.508,19.305 0,2.148 -0.352,4.289 -0.938,6.457 -3.363,11.628 -14.882,18.714 -26.836,16.503 l -1.613,-0.312 -2.195,-0.719 -3.176,-1.062 c -6.551,-1.657 -11.512,-1.762 -12.527,-1.793 -3.379,0.215 -19.825,5.144 -19.825,23.164 v 0.203 c 0.047,6.613 2.715,11.23 4.161,13.762 5.086,8.007 19.082,15.886 38.007,14.218 24.786,-2.129 42.684,-14.836 54.52,-38.828 11.027,-22.343 8.137,-49.758 -7.391,-69.883 -15.449,-19.96 -42.89,-28.418 -79.433,-24.457 -36.836,4.055 -67.969,25.247 -85.4299,58.266 -17.0508,32.227 -17.9883,70.488 -2.4219,99.883 37.3128,70.375 107.7148,69.664 146.3478,62.988 54.844,-9.484 138.066,-58.691 169.277,-172.601 h 75.946 c -9.383,29.046 -14.813,113.109 70.675,113.109 93.711,0 105.567,-65.996 132.11,-113.109 h 80.449 c -21.172,30.304 -36.035,64.031 -31.328,92.375 6.933,41.836 40.261,38.086 86.347,32.843 15.028,-1.718 32.188,-3.687 49.922,-4.082 49.453,-0.304 94.325,8.797 127.188,23.164 21.254,9.297 34.824,15.43 43.334,23.133 3.06,2.531 4.65,6.68 6.27,11.067 l 1.15,2.949 c 1.39,3.543 3.2,11.172 4.25,15.242 2.18,8.41 -5.24,3.957 -5.24,3.957 -14.39,-8.664 -50.499,-25.137 -84.249,-25.805 -41.824,-0.859 -126.132,42.075 -134.929,46.653 l -0.832,0.984 c -2.129,5.039 -14.774,34.973 -17.45,41.281 60.704,-39.98 111.016,-62.07 149.551,-65.496 42.91,-3.828 76.349,19.59 90.639,29.571 1.51,1.031 7.19,4.843 5.86,9.453 -5.61,19.488 -24.85,84.746 -40.87,101.308 -4.683,4.821 -8.422,9.492 -16.019,13.926 -61.34,35.75 -206.856,57.34 -213.692,58.33 0,0 -1.679,0.42 -1.621,-1.35"
         style="fill:#64c54a;fill-opacity:1;fill-rule:nonzero;stroke:none"
         id="path54"
         inkscape:connector-curvature="0" /><path
         d="m 943.496,877.359 c -10.683,0 -19.258,5.77 -19.258,12.84 0,7.102 8.575,12.871 19.258,12.871 10.645,0 19.277,-5.769 19.277,-12.871 0,-7.07 -8.632,-12.84 -19.277,-12.84 z m -7.129,47.481 c -11.601,0.457 -22.617,-3.688 -31.074,-11.602 -8.457,-7.91 -13.418,-18.625 -13.77,-30.218 -0.781,-23.961 17.969,-44.129 41.895,-45.016 11.629,-0.352 22.656,3.777 31.172,11.644 8.484,7.946 13.379,18.672 13.73,30.239 0.801,23.996 -17.988,44.129 -41.953,44.953"
         style="fill:#64c54a;fill-opacity:1;fill-rule:nonzero;stroke:none"
         id="path56"
         inkscape:connector-curvature="0" /></g></g></svg>